<?xml version="1.0" standalone="no"?>
<!DOCTYPE svg PUBLIC "-//W3C//DTD SVG 20010904//EN"
 "http://www.w3.org/TR/2001/REC-SVG-20010904/DTD/svg10.dtd">
<svg version="1.0" xmlns="http://www.w3.org/2000/svg"
 width="500.000000pt" height="500.000000pt" viewBox="0 0 500.000000 500.000000"
 preserveAspectRatio="xMidYMid meet">

<g transform="translate(0.000000,500.000000) scale(0.100000,-0.100000)"
fill="#000000" stroke="none">
<path d="M1067 4359 c-201 -47 -369 -213 -422 -416 -23 -87 -22 -2800 0 -2887
39 -149 149 -289 281 -358 133 -70 105 -68 931 -68 l743 0 0 725 0 725 -210 0
c-318 0 -313 -4 -308 281 l3 179 33 32 32 33 224 3 223 4 6 266 c5 245 7 275
31 367 47 180 125 300 250 386 142 97 278 124 574 116 220 -6 252 -14 279 -68
19 -37 18 -411 -2 -448 -21 -41 -54 -49 -210 -53 -127 -3 -144 -6 -185 -28
-24 -14 -58 -44 -75 -68 l-30 -44 -3 -214 -3 -214 208 -1 c235 0 267 -6 297
-58 19 -33 19 -34 -3 -214 -13 -100 -27 -190 -33 -200 -5 -10 -24 -27 -41 -37
-29 -18 -52 -20 -229 -20 l-198 0 0 -725 0 -725 328 0 c367 0 393 3 516 68 92
48 180 136 228 228 72 138 68 35 68 1574 0 1539 4 1436 -68 1574 -48 92 -136
180 -228 228 -138 72 -34 68 -1579 67 -779 -1 -1407 -5 -1428 -10z"/>
</g>
</svg>
