<?xml version="1.0" standalone="no"?>
<!DOCTYPE svg PUBLIC "-//W3C//DTD SVG 20010904//EN"
 "http://www.w3.org/TR/2001/REC-SVG-20010904/DTD/svg10.dtd">
<svg version="1.0" xmlns="http://www.w3.org/2000/svg"
 width="500.000000pt" height="500.000000pt" viewBox="0 0 500.000000 500.000000"
 preserveAspectRatio="xMidYMid meet">

<g transform="translate(0.000000,500.000000) scale(0.100000,-0.100000)"
fill="#000000" stroke="none">
<path d="M2285 4519 c-692 -72 -1302 -501 -1611 -1134 -379 -778 -218 -1720
399 -2328 219 -216 471 -372 780 -483 l37 -13 0 233 0 233 -62 -13 c-166 -35
-316 10 -418 123 -61 69 -91 125 -129 243 -36 110 -80 175 -151 226 -54 38
-61 57 -31 74 54 28 157 -8 228 -80 24 -23 67 -77 96 -119 103 -145 182 -196
307 -195 41 0 96 6 121 13 l47 13 16 66 c22 90 75 196 130 258 l46 52 -85 21
c-303 76 -540 243 -643 453 -53 108 -72 180 -78 303 -12 210 63 423 217 616
20 26 21 29 6 95 -34 152 -30 345 10 487 18 67 17 67 142 37 134 -32 301 -119
406 -211 l34 -30 58 15 c104 26 216 39 343 39 127 0 239 -13 343 -39 l58 -15
34 30 c105 92 272 179 406 211 125 30 124 30 142 -37 38 -137 44 -353 13 -504
l-13 -59 54 -71 c66 -87 126 -210 155 -315 28 -104 31 -307 4 -404 -79 -292
-330 -508 -701 -601 l-85 -21 35 -39 c57 -63 105 -142 133 -220 l26 -74 6
-397 5 -397 111 44 c686 269 1154 846 1281 1580 12 73 17 157 17 315 0 158 -5
242 -17 315 -116 675 -519 1216 -1122 1511 -338 164 -723 232 -1100 193z"/>
</g>
</svg>
