<?xml version="1.0" standalone="no"?>
<!DOCTYPE svg PUBLIC "-//W3C//DTD SVG 20010904//EN"
 "http://www.w3.org/TR/2001/REC-SVG-20010904/DTD/svg10.dtd">
<svg version="1.0" xmlns="http://www.w3.org/2000/svg"
 width="500.000000pt" height="500.000000pt" viewBox="0 0 500.000000 500.000000"
 preserveAspectRatio="xMidYMid meet">

<g transform="translate(0.000000,500.000000) scale(0.100000,-0.100000)"
fill="#000000" stroke="none">
<path d="M2384 4582 c-61 -21 -223 -112 -639 -360 -170 -102 -418 -248 -550
-325 -132 -77 -277 -169 -323 -204 -138 -108 -248 -259 -292 -403 -67 -217
-79 -922 -24 -1355 38 -301 92 -567 137 -674 92 -222 316 -454 548 -567 137
-67 555 -147 910 -174 172 -13 526 -13 698 0 365 28 778 108 916 178 229 115
436 325 534 543 66 148 143 577 172 972 23 314 -3 914 -47 1067 -41 143 -154
302 -292 411 -112 90 -1402 860 -1491 890 -70 24 -188 25 -257 1z m243 -2287
c81 -5 247 -47 314 -79 50 -24 113 -86 138 -138 48 -100 91 -402 91 -643 0
-223 -22 -403 -57 -467 -52 -96 -112 -122 -312 -138 -230 -17 -675 -6 -771 20
-99 27 -153 100 -177 241 -24 137 -24 523 0 679 24 152 52 271 76 318 23 45
85 103 138 130 88 45 360 96 453 86 14 -2 62 -6 107 -9z"/>
</g>
</svg>
