<?xml version="1.0" standalone="no"?>
<!DOCTYPE svg PUBLIC "-//W3C//DTD SVG 20010904//EN"
 "http://www.w3.org/TR/2001/REC-SVG-20010904/DTD/svg10.dtd">
<svg version="1.0" xmlns="http://www.w3.org/2000/svg"
 width="500.000000pt" height="500.000000pt" viewBox="0 0 500.000000 500.000000"
 preserveAspectRatio="xMidYMid meet">

<g transform="translate(0.000000,500.000000) scale(0.100000,-0.100000)"
fill="#000000" stroke="none">
<path d="M1460 4429 c-447 -94 -800 -445 -890 -887 -19 -97 -20 -133 -20
-1034 0 -1025 0 -1020 61 -1196 61 -174 150 -312 291 -448 127 -124 263 -206
423 -259 168 -55 175 -55 1160 -55 529 1 941 5 985 10 41 6 120 24 175 41 381
118 665 415 773 806 l27 98 3 935 c2 634 -1 962 -8 1018 -65 497 -443 890
-939 977 -70 13 -236 15 -1015 14 -889 0 -935 -1 -1026 -20z m2277 -619 c100
-45 120 -171 40 -247 -100 -96 -257 -29 -257 111 0 63 28 108 83 135 52 26 80
26 134 1z m-1066 -310 c329 -47 653 -312 774 -634 218 -579 -104 -1195 -705
-1352 -91 -23 -124 -27 -245 -27 -118 1 -156 5 -240 27 -295 77 -535 272 -665
540 -60 124 -86 216 -101 358 -41 391 172 788 524 978 203 110 412 144 658
110z"/>
<path d="M2330 3180 c-210 -56 -367 -184 -460 -375 -57 -117 -73 -196 -67
-335 12 -270 151 -482 393 -601 349 -170 769 -20 938 335 50 105 70 208 63
330 -16 297 -203 541 -484 633 -109 36 -276 42 -383 13z"/>
</g>
</svg>
